<?xml version="1.0" encoding="UTF-8" standalone="no"?>
<svg
   xmlns:dc="http://purl.org/dc/elements/1.1/"
   xmlns:cc="http://creativecommons.org/ns#"
   xmlns:rdf="http://www.w3.org/1999/02/22-rdf-syntax-ns#"
   xmlns:svg="http://www.w3.org/2000/svg"
   xmlns="http://www.w3.org/2000/svg"
   xmlns:sodipodi="http://sodipodi.sourceforge.net/DTD/sodipodi-0.dtd"
   xmlns:inkscape="http://www.inkscape.org/namespaces/inkscape"
   width="58.677757mm"
   height="54.693153mm"
   viewBox="0 0 58.677757 54.693153"
   version="1.1"
   id="svg8"
   inkscape:version="1.0.2-2 (e86c870879, 2021-01-15)"
   sodipodi:docname="gastly-shape.svg">
  <defs
     id="defs2" />
  <sodipodi:namedview
     id="base"
     pagecolor="#ffffff"
     bordercolor="#666666"
     borderopacity="1.0"
     inkscape:pageopacity="0.0"
     inkscape:pageshadow="2"
     inkscape:zoom="2.8"
     inkscape:cx="137.40269"
     inkscape:cy="107.53476"
     inkscape:document-units="mm"
     inkscape:current-layer="layer1"
     inkscape:document-rotation="0"
     showgrid="false"
     fit-margin-top="0"
     fit-margin-left="0"
     fit-margin-right="0"
     fit-margin-bottom="0"
     inkscape:window-width="1298"
     inkscape:window-height="941"
     inkscape:window-x="2216"
     inkscape:window-y="44"
     inkscape:window-maximized="0" />
  <metadata
     id="metadata5">
    <rdf:RDF>
      <cc:Work
         rdf:about="">
        <dc:format>image/svg+xml</dc:format>
        <dc:type
           rdf:resource="http://purl.org/dc/dcmitype/StillImage" />
        <dc:title></dc:title>
      </cc:Work>
    </rdf:RDF>
  </metadata>
  <g
     inkscape:label="Capa 1"
     inkscape:groupmode="layer"
     id="layer1"
     transform="translate(0.70788388,-0.05669659)">
    <path
       style="fill:#8000ff;stroke:#000000;stroke-width:0.265;stroke-linecap:butt;stroke-linejoin:miter;stroke-opacity:1;fill-opacity:1;stroke-miterlimit:4;stroke-dasharray:none"
       d="m 38.129168,52.406398 v -4.819195 l 2.55134,-2.173365 1.13393,1.228424 1.700893,-1.795389 v -2.740326 h 3.307291 v -1.41741 h 1.889879 L 50.3189,37.192856 48.90149,35.869939 v -2.645833 l 1.984375,-1.322917 v -2.267857 h -2.36235 l -0.850448,1.889882 h -0.944941 l -1.133927,-1.606399 v -2.740327 l 1.228423,-1.039434 v -1.795388 l 3.023809,-2.929315 -2.36235,-3.779762 h -1.795389 v -1.700893 h 3.212798 v -2.929315 l -2.173364,-1.889881 -1.133927,0.566964 -0.944941,-0.94494 -2.173362,1.417411 v 2.267857 l 1.039435,0.94494 v 1.322917 l -1.228424,1.228422 -3.023809,-3.023809 1.41741,-3.212798 -3.401785,-3.4017853 h -3.96875 l -0.661458,2.0788693 -3.023809,1.606398 -3.212799,-1.606398 V 7.9941965 L 29.624706,6.4822917 V 3.6474705 l -2.55134,-2.1733632 h -4.630209 l -2.267856,2.0788691 v 1.984375 L 15.923068,7.8052083 V 10.829018 H 11.29286 l -2.2678572,5.008184 h -2.362351 v 4.441221 H 9.7809552 V 23.49122 H 7.7965803 l -1.7953868,2.929316 v 2.929316 h 2.2678569 l 0.094494,2.456844 H 5.3397351 l -1.0394346,3.779761 3.3072916,5.669645 h 3.5907739 l 1.417411,2.362351 -1.322917,0.755951 1.322917,3.496281 h 4.346726 v 3.685268 h 4.91369 l 3.307292,-3.023809 h 3.49628 l 0.944941,2.36235 h 3.118302 l 1.41741,1.606399 z"
       id="path849" />
    <rect
       style="opacity:1;fill:#8000ff;stroke:#000000;stroke-width:0.5;stroke-miterlimit:4;stroke-dasharray:none;stroke-opacity:1;paint-order:stroke markers fill;stop-color:#000000;font-variation-settings:normal;vector-effect:none;fill-opacity:1;stroke-linecap:butt;stroke-linejoin:miter;stroke-dashoffset:0;stop-opacity:1"
       id="rect851"
       width="1.7744626"
       height="1.9832228"
       x="5.4446912"
       y="11.217456" />
    <rect
       style="opacity:1;fill:#8000ff;stroke:#000000;stroke-width:0.5;stroke-miterlimit:4;stroke-dasharray:none;stroke-opacity:1;paint-order:stroke markers fill;stop-color:#000000;font-variation-settings:normal;vector-effect:none;fill-opacity:1;stroke-linecap:butt;stroke-linejoin:miter;stroke-dashoffset:0;stop-opacity:1"
       id="rect853"
       width="2.1548278"
       height="2.4083369"
       x="7.9252148"
       y="7.366878" />
    <rect
       style="opacity:1;fill:#8000ff;stroke:#000000;stroke-width:0.5;stroke-miterlimit:4;stroke-dasharray:none;stroke-opacity:1;paint-order:stroke markers fill;stop-color:#000000;font-variation-settings:normal;vector-effect:none;fill-opacity:1;stroke-linecap:butt;stroke-linejoin:miter;stroke-dashoffset:0;stop-opacity:1"
       id="rect855"
       width="3.0677044"
       height="3.4286106"
       x="52.280849"
       y="30.518051" />
    <rect
       style="opacity:1;fill:#8000ff;stroke:#000000;stroke-width:0.5;stroke-miterlimit:4;stroke-dasharray:none;stroke-opacity:1;paint-order:stroke markers fill;stop-color:#000000;font-variation-settings:normal;vector-effect:none;fill-opacity:1;stroke-linecap:butt;stroke-linejoin:miter;stroke-dashoffset:0;stop-opacity:1"
       id="rect857"
       width="2.8236508"
       height="2.9955688"
       x="40.335987"
       y="50.077507" />
    <path
       style="fill:#8000ff;stroke:#000000;stroke-width:0.265;stroke-linecap:butt;stroke-linejoin:miter;stroke-opacity:1;font-variation-settings:normal;opacity:1;vector-effect:none;fill-opacity:1;stroke-miterlimit:4;stroke-dasharray:none;stroke-dashoffset:0;stop-color:#000000;stop-opacity:1"
       d="m 31.987057,1.4741073 h 1.700892 l 1.228423,1.1339286 h 1.795386 l 1.370163,-1.3701637 1.653646,1.3701637 -1.795386,1.7953867 H 36.333782 L 35.388841,5.5373514 H 34.160418 L 31.892563,3.2694941 Z"
       id="path859" />
  </g>
</svg>
